<svg xmlns="http://www.w3.org/2000/svg" width="153" height="39">
  <path
     d="M 130.8365,27.99125 C 131.0403,28.43375 131.1428,28.91125 131.1428,29.415 131.1428,32.0625 129.6715,33.20125 128.9553,33.79875 127.1628,35.2825 124.6053,35.17625 124.5778,35.17625 H 123.1878 C 122.3153,35.17625 121.3403,35.9 121.3403,36.93375 121.3403,38.0375 122.0803,38.70375 123.3191,38.70375 H 124.5828 C 124.6541,38.70375 126.4316,38.77625 128.3415,38.16625 130.2728,37.55 132.9365,36.1025 134.7753,32.705 135.219,31.89875 139.0116,23.3475 141.7766,17.11125 L 143.8891,12.375 C 144.0128,12.08375 144.0241,11.79625 143.9466,11.53375 143.8566,11.24 143.6353,10.995 143.3166,10.825 142.7703,10.5425 142.0128,10.525 141.2628,10.7625 140.4928,11.00875 139.8466,11.5175 139.5953,12.08375 139.5715,12.15755 136.4391,18.925 136.2116,19.39375 135.5991,20.615 134.8616,21.325 134.1853,21.325 133.3891,21.325 132.8941,21.2275 131.7528,19.285 131.6678,19.1325 128.2403,13.0875 127.6928,12.14125 127.3803,11.545 126.7166,11.0375 125.9066,10.78 125.0953,10.525 124.2578,10.53625 123.6703,10.8425 123.3228,11.02625 123.0778,11.29625 122.9803,11.61375 122.8928,11.8975 122.9153,12.21375 123.0478,12.5325 123.074,12.5937 130.3991,27.07625 130.8366,27.99125 M 111.3216,19.2275 C 111.3591,17.98375 112.3653,17.02125 113.6203,17.02125 H 113.6183 113.6608 113.6133 116.5446 C 117.4958,17.02125 118.2521,16.74375 118.7908,16.195 119.6433,15.345 119.6746,14.0975 119.6746,13.8625 119.6756,13.54 119.6308,12.4875 118.8621,11.7175 118.3308,11.185 117.5746,10.90625 116.6146,10.90625 H 113.6396 C 111.6196,10.90625 111.6196,10.44125 111.6196,9.22 111.6196,9.1925 111.6809,6.70875 113.6696,6.00625 114.2996,5.77375 115.0071,5.665 115.7571,5.66125 H 119.3421 C 120.5883,5.66125 121.7058,4.8275 122.0596,3.63625 122.1396,3.3725 122.1808,3.1025 122.1808,2.83125 122.1808,1.26875 120.9008,0 119.3421,0 119.2883,0 115.9208,0.01 115.9208,0.01 115.4508,0.01 114.9421,0.04 114.4158,0.0938 112.8133,0.2663 111.3808,0.6338 110.1358,1.1838 104.8946,3.5063 104.6496,8.2488 104.6496,8.30005 L 104.6446,8.37375 C 104.3833,10.015 103.9546,10.90625 102.3971,10.90625 101.6233,10.90625 100.9983,11.14875 100.5446,11.6475 99.7433,12.50125 99.7708,13.825 99.7708,13.8425 V 13.825 C 99.7708,16.51875 102.3183,17.02125 102.3583,17.02625 103.5596,17.12495 104.4683,18.1 104.4683,19.28375 104.4683,19.34245 104.4521,25.40375 104.4521,28.6 104.4521,29.725 104.7609,30.595 105.3471,31.19 106.1221,31.96375 107.1196,31.97125 107.1559,31.97125 H 108.5221 C 108.6033,31.97125 109.3546,31.95745 110.0584,31.46625 110.6334,31.07875 111.3221,30.2625 111.3221,28.63125 Z M 63.1553,13.2625 C 63.1553,13.2625 63.0203,10.61375 65.8528,10.61375 67.4728,10.61375 68.49405,12.0825 70.39905,12.0825 72.83405,12.0825 73.47905,10.61375 76.7803,10.61375 80.55155,10.61375 80.7653,12.0825 83.09405,12.0825 85.5553,12.0825 85.99655,10.61375 90.3353,10.61375 92.63655,10.61375 95.17405,11.95375 95.17405,14.84125 95.17405,18.7775 95.18405,29.18875 95.18405,29.25625 95.18405,30.7375 93.9753,31.9575 92.47905,31.9575 90.9903,31.9575 89.7803,30.7375 89.7803,29.25625 V 17.44375 C 89.7803,16.12875 89.7978,13.49125 87.48905,13.43625 87.48905,13.43625 81.86155,12.66125 81.86155,22.51125 81.86155,22.66875 81.87055,29.20125 81.87055,29.25625 81.87055,30.7375 80.65805,31.9575 79.16805,31.9575 77.70555,31.9575 76.50805,30.78875 76.46805,29.3375 V 17.44 C 76.46805,16.58 76.6193,13.43625 74.13805,13.43625 69.34805,13.43625 68.55555,18.3325 68.55555,22.35125 V 29.25625 C 68.55555,30.7375 67.3443,31.9575 65.85305,31.9575 64.3893,31.9575 63.1943,30.78875 63.15555,29.3375 Z M 41.348,4.58 C 32.1605,4.58 24.72675,12.01875 24.72675,21.20625 24.72675,30.385 32.1605,37.83125 41.348,37.83125 50.53425,37.83125 57.97675,30.385 57.97675,21.20625 57.97675,12.01875 50.53425,4.58 41.348,4.58 M 41.348,27.14375 C 38.08425,27.14375 35.40675,24.48 35.40675,21.20625 35.40675,17.925 38.08425,15.26375 41.348,15.26375 44.62175,15.26375 47.28675,17.925 47.28675,21.20625 47.28675,24.48 44.62175,27.14375 41.348,27.14375 M 8.161754,23.0675 12.18175,24.7 C 13.12892,25.08464 13.62042,26.07491 13.35425,27.09625 13.02167,28.37244 11.49914,29.58336 8.221754,29.1425 6.917888,28.96711 4.29504,28.43534 3.853003,28.30875 2.737983,27.98944 1.596373,27.86067 0.8493034,28.23895 0.4464435,28.45599 0.1860124,28.7975 0.0668034,29.2727 -0.3602378,30.975 1.391207,31.57001 1.405553,31.5752 4.517382,32.37164 8.0408,33.08478 10.91805,33.10145 12.99306,33.07315 18.02557,32.59885 19.99805,28.98645 20.28683,28.45759 20.69354,26.59887 20.49055,25.42145 20.25479,24.05387 19.84649,22.69057 17.47555,21.1602 16.87772,20.77432 15.01088,20.15044 13.3543,19.60645 12.48711,19.32168 11.65119,19.04613 11.21805,18.87145 8.316186,17.70113 7.803604,16.63854 7.750553,16.10645 7.868328,13.90997 10.20349,13.33894 11.8143,13.32395 13.57815,13.2238 15.19462,13.67656 16.69555,14.0702 17.44342,14.2638 18.03647,14.24122 18.4543,13.9814 18.95525,13.6699 19.06177,13.13994 19.09805,12.9539 19.16174,12.62733 19.23308,11.52633 17.4918,10.82515 17.35183,10.76878 13.79477,9.38981 8.193053,10.16265 7.407267,10.27106 5.870115,10.57959 4.420553,11.3814 2.306325,12.55086 1.20088,14.36139 1.239303,16.6139 1.26713,18.24514 2.026803,19.6839 3.443053,20.80515 4.499303,21.6414 5.538053,22.00265 5.578028,22.01507 5.610503,22.0263 6.846607,22.53343 8.161754,23.0675 Z"
     id="path3092"
     style="fill:#ffb514;fill-opacity:1;fill-rule:nonzero;stroke:none" />
</svg>