<svg
   width="42"
   height="15"
   xmlns="http://www.w3.org/2000/svg">
  <g transform="translate(-11.1125,-56.09166)">
    <rect
       fill="#d72555"
       height="12.58482"
       rx="1.627815"
       width="12.58482"
       x="12.58199"
       y="57.34296"
       id="rect19"
       style="stroke-width:0.264583" />
    <path
       d="M 22.68505,64.37346 C 22.64129,63.9189 22.43706,63.51464 22.14695,63.30155 22.09517,63.11821 22.01132,62.95514 21.89707,62.81575 21.87995,62.60165 21.78865,62.1832 21.36687,61.81413 21.41386,61.77268 21.4581,61.72274 21.48969,61.66452 21.8418,61.50725 22.09009,61.17698 22.11893,60.93127 22.30678,60.74333 22.41428,60.52111 22.42333,60.3001 22.42764,60.19581 22.40886,60.09871 22.36951,60.01588 22.52503,59.84793 22.57634,59.65004 22.51019,59.45851 22.40518,59.15402 22.03667,58.95641 21.54192,58.93531 21.40926,58.81434 21.22426,58.75068 21.0027,58.75068 20.90801,58.75068 20.80839,58.76303 20.71158,58.78661 20.63234,58.74847 20.53479,58.72857 20.42551,58.72857 20.24007,58.72857 20.03673,58.78477 19.87965,58.87736 A 0.5023757,0.5023757 0 0 0 19.81369,58.87312 C 19.56808,58.87312 19.32257,59.04236 19.19809,59.14324 A 1.866244,1.866244 0 0 0 18.87445,59.48043 1.868086,1.868086 0 0 0 18.55089,59.14324 C 18.42632,59.04245 18.18082,58.87312 17.9352,58.87312 A 0.5030207,0.5030207 0 0 0 17.86923,58.87736 C 17.71216,58.78477 17.50883,58.72857 17.32346,58.72857 17.21411,58.72857 17.11664,58.74847 17.03732,58.78661 A 1.246865,1.246865 0 0 0 16.74619,58.75068 C 16.52462,58.75068 16.33963,58.81425 16.20696,58.93531 15.71223,58.95631 15.34372,59.15402 15.23869,59.4586 15.17255,59.65004 15.22395,59.84793 15.37937,60.01597 15.34003,60.09871 15.32133,60.1959 15.32557,60.3001 15.3346,60.52121 15.44211,60.74342 15.62996,60.93127 15.65871,61.17698 15.90708,61.50725 16.2592,61.66461 16.2908,61.72265 16.33502,61.77258 16.38191,61.81413 15.96024,62.1832 15.86894,62.60165 15.85181,62.81585 15.73757,62.95514 15.65373,63.11812 15.60196,63.30155 15.31184,63.51464 15.1076,63.91899 15.06393,64.37337 15.02035,64.82516 15.14435,65.24684 15.39651,65.51391 15.43115,65.7166 15.54668,65.98193 15.67087,66.1438 15.69574,66.48624 15.84167,66.82389 16.08452,67.09981 16.32922,67.37758 16.65176,67.56893 16.99696,67.64199 17.20545,67.83702 17.4273,67.97429 17.72662,68.09369 17.85735,68.22543 18.2382,68.54227 18.87445,68.54227 19.51069,68.54227 19.89153,68.22534 20.02226,68.09369 20.32159,67.97429 20.54344,67.83702 20.75193,67.64199 21.09705,67.56893 21.41969,67.37758 21.66427,67.09981 21.90721,66.82389 22.05304,66.48624 22.07802,66.1438 22.2023,65.98193 22.31784,65.71669 22.35229,65.51401 22.60454,65.24684 22.72845,64.82516 22.68505,64.37346 Z M 20.98087,62.9919 C 20.68219,62.82911 20.3999,62.59151 20.18662,62.32618 19.90177,61.9877 20.08695,61.83698 20.53561,61.91824 20.87004,61.99931 21.1864,62.26464 21.32385,62.57981 21.48324,63.00388 21.35904,63.20785 20.98087,62.9919 Z M 19.7994,59.38711 A 0.0389703,0.0389703 0 0 1 19.84899,59.42856 C 19.83663,59.54529 19.90719,59.53055 19.92397,59.50982 20.10778,59.28134 20.30243,59.22929 20.47674,59.24458 20.50743,59.24735 20.52206,59.28309 20.50346,59.3076 20.43419,59.41032 20.5088,59.42985 20.53635,59.41134 20.81919,59.23445 21.08911,59.23417 21.19267,59.30843 21.21275,59.32289 21.2135,59.35265 21.19497,59.36905 21.09031,59.45823 21.14891,59.50263 21.18585,59.48909 21.4731,59.38775 21.86964,59.47739 22.00791,59.5943 22.02624,59.60987 22.0268,59.63788 22.00883,59.65382 21.83408,59.80878 21.74811,59.93315 21.70895,60.17701 21.70123,60.24584 21.81537,60.23137 21.86347,60.21893 21.88742,60.21276 21.91136,60.23063 21.9121,60.25532 21.91644,60.42069 21.7601,60.60246 21.52737,60.75788 21.49623,60.7787 21.50065,60.82864 21.57177,60.83048 21.60394,60.83288 21.61876,60.86272 21.60495,60.88852 21.52195,61.04247 21.40908,61.18748 21.02482,61.28707 20.98815,61.29656 20.98519,61.34649 21.01929,61.36132 21.05348,61.37616 21.05385,61.40886 21.03162,61.42793 20.64903,61.75665 19.67918,61.62702 19.55601,61.07379 A 0.038786,0.038786 0 0 1 19.56302,61.0421 C 19.79316,60.73513 20.32804,60.13436 21.1714,59.81836 21.20556,59.80555 21.19241,59.75414 21.15629,59.75949 20.33717,59.8811 19.76035,60.3364 19.40954,60.81251 A 0.0394309,0.0394309 0 0 1 19.35951,60.82385 C 18.73782,60.50287 19.2483,59.55515 19.7994,59.38711 Z M 18.87445,61.83763 C 18.99375,61.83763 19.30357,61.84868 19.62758,62.10268 20.16839,62.55227 19.54882,62.87038 18.87445,62.87038 18.20008,62.87038 17.58041,62.55218 18.12128,62.10268 18.44532,61.84859 18.75515,61.83763 18.87445,61.83763 Z M 16.14413,60.88843 C 16.13022,60.86263 16.14505,60.83278 16.17721,60.83039 16.24833,60.82855 16.25275,60.77861 16.22161,60.75779 15.9889,60.60237 15.83255,60.4206 15.83688,60.25523 A 0.0389703,0.0389703 0 0 1 15.88544,60.21884 C 15.93362,60.23119 16.04777,60.24574 16.04003,60.17692 16.00078,59.93306 15.91492,59.80869 15.74006,59.65372 A 0.0393388,0.0393388 0 0 1 15.74098,59.5943 C 15.87935,59.4773 16.27587,59.38766 16.56304,59.489 16.60008,59.50254 16.65867,59.45814 16.55401,59.36896 A 0.0389703,0.0389703 0 0 1 16.55631,59.30834 C 16.65987,59.23408 16.92971,59.23445 17.21264,59.41124 17.24027,59.42967 17.3148,59.41023 17.24553,59.30751 17.22692,59.283 17.24156,59.24726 17.27224,59.24449 17.44655,59.2292 17.64122,59.28116 17.82501,59.50973 17.84169,59.53046 17.91235,59.5452 17.9,59.42847 A 0.0389703,0.0389703 0 0 1 17.94948,59.38701 C 18.50067,59.55506 19.01116,60.50278 18.38949,60.82376 A 0.0394309,0.0394309 0 0 1 18.33946,60.81242 C 17.98854,60.3363 17.41172,59.88101 16.5927,59.7594 16.55659,59.75405 16.54332,59.80546 16.57759,59.81836 17.42084,60.13436 17.95583,60.73504 18.18597,61.04201 A 0.0388782,0.0388782 0 0 1 18.19299,61.0737 C 18.0699,61.62693 17.09996,61.75656 16.71735,61.42784 16.69515,61.40877 16.69552,61.37606 16.72961,61.36123 16.76369,61.34649 16.76084,61.29647 16.72417,61.28698 16.3399,61.18739 16.22705,61.04238 16.14413,60.88843 Z M 16.42512,62.57972 C 16.56239,62.26464 16.87876,61.99931 17.21328,61.91824 17.66195,61.83689 17.84712,61.98761 17.56226,62.32609 17.34889,62.59142 17.06661,62.82902 16.76803,62.99181 16.38984,63.20776 16.26565,63.00379 16.42503,62.57972 Z M 15.64277,64.93636 C 15.51784,64.60931 15.54898,64.21168 15.73259,63.906 15.93251,63.56605 16.13354,63.57959 16.21332,63.86758 16.31623,64.24789 16.27661,64.70153 16.10922,65.05816 15.96126,65.35232 15.77626,65.25292 15.64277,64.93627 Z M 17.08366,67.13841 C 16.60394,67.03735 16.19655,66.55414 16.17822,66.0642 16.25321,64.31873 18.76877,67.4358 17.08366,67.13841 Z M 17.13479,64.96446 C 16.71293,64.72097 16.60136,64.12453 16.88549,63.63229 17.16961,63.14023 17.74191,62.93865 18.16378,63.18224 18.58563,63.42583 18.6972,64.02217 18.41307,64.51441 18.12896,65.00647 17.55664,65.20805 17.13479,64.96446 Z M 19.5784,67.80459 A 1.198866,1.198866 0 0 1 18.87445,68.0316 C 18.61161,68.0316 18.36856,67.94739 18.17058,67.80459 17.75251,67.51586 18.17306,67.18374 18.87445,67.18374 19.57583,67.18374 19.99639,67.51586 19.57832,67.80459 Z M 18.87445,66.7465 C 18.33366,66.7465 17.89531,66.3708 17.89531,65.90721 17.89531,65.4438 18.33366,65.06792 18.87445,65.06792 19.41523,65.06792 19.85359,65.4438 19.85359,65.90721 19.85359,66.3708 19.41523,66.7465 18.87445,66.7465 Z M 19.33572,64.51441 C 19.05161,64.02226 19.16327,63.42592 19.58512,63.18233 20.00697,62.93875 20.57918,63.14032 20.8634,63.63247 21.14753,64.12462 21.03596,64.72106 20.61411,64.96465 20.19226,65.20814 19.61994,65.00656 19.33572,64.51441 Z M 20.66523,67.13851 C 18.98012,67.4359 21.49567,64.31883 21.57068,66.06429 21.55224,66.55423 21.14494,67.03744 20.66523,67.13851 Z M 22.10612,64.93636 C 21.97264,65.25301 21.78764,65.35232 21.63958,65.05825 21.47228,64.70162 21.43268,64.24798 21.53549,63.86767 21.61534,63.57968 21.81648,63.56614 22.01629,63.90609 22.19991,64.21177 22.23106,64.60949 22.10612,64.93636 Z"
       fill="#ffffff"
       id="path20"
       style="stroke-width:0.264583" />
    <path
       d="M 50.13832,58.02549 A 0.8096852,0.9106587 0 0 1 50.94708,58.9351 V 68.44616 A 0.8096852,0.9106587 0 0 1 50.13832,69.3559 H 29.323 A 0.8096852,0.9106587 0 0 1 28.51435,68.44616 V 58.9351 A 0.8096852,0.9106587 0 0 1 29.323,58.02549 Z M 50.13832,57.27555 H 29.323 C 28.50816,57.27555 27.84745,58.01853 27.84745,58.9351 V 68.44616 C 27.84745,69.36273 28.50816,70.10584 29.32311,70.10584 H 50.13832 C 50.95327,70.10584 51.61398,69.36273 51.61398,68.44616 V 58.9351 C 51.61398,58.01853 50.95327,57.27541 50.13832,57.27541 Z"
       fill="#d72555"
       id="path22"
       style="stroke-width:0.264583" />
    <path
       d="M 31.76793,64.59445 V 67.72538 H 30.8302 V 59.72775 H 33.45285 C 34.23099,59.72775 34.84065,59.95115 35.28184,60.39794 35.72301,60.84472 35.94362,61.43606 35.94362,62.17208 35.94362,62.94844 35.72793,63.54621 35.29655,63.96553 34.86507,64.38472 34.24735,64.59445 33.44304,64.59445 Z M 31.76793,63.73202 H 33.45275 C 33.95421,63.73202 34.33836,63.59904 34.60546,63.3332 34.87242,63.06723 35.00585,62.68286 35.00585,62.18036 35.00585,61.70335 34.87242,61.322 34.60546,61.03592 34.33849,60.74958 33.9722,60.60109 33.50659,60.59018 H 31.76793 V 63.73215 Z M 36.90249,60.20555 C 36.90249,60.04077 36.94723,59.90174 37.03685,59.7882 37.12646,59.67466 37.25896,59.6179 37.43481,59.6179 37.61065,59.6179 37.74418,59.67466 37.83533,59.7882 37.92646,59.90174 37.97202,60.04077 37.97202,60.20555 37.97202,60.37034 37.92646,60.50779 37.83533,60.61765 37.74418,60.72751 37.61065,60.78244 37.43481,60.78244 37.25896,60.78244 37.12636,60.72751 37.03674,60.61765 36.94713,60.50779 36.90249,60.37034 36.90249,60.20555 Z M 37.87925,67.72538 H 36.97575 V 61.78206 H 37.87925 Z M 41.35249,67.0058 C 41.67483,67.0058 41.95654,66.89593 42.19746,66.67621 42.43837,66.45651 42.5718,66.18186 42.59786,65.85229 H 43.45265 C 43.4364,66.1929 43.33229,66.51695 43.1401,66.82458 42.94801,67.13208 42.69157,67.37754 42.37095,67.5606 42.05036,67.74365 41.71082,67.83524 41.3526,67.83524 40.63312,67.83524 40.06085,67.5652 39.6359,67.0251 39.21109,66.48502 38.99855,65.74611 38.99855,64.80865 V 64.63834 C 38.99855,64.05975 39.09298,63.54529 39.28189,63.09496 39.4708,62.64462 39.74176,62.29468 40.09509,62.04579 40.44838,61.79691 40.86584,61.6722 41.3477,61.6722 41.94029,61.6722 42.43276,61.87181 42.82511,62.27089 43.21746,62.66998 43.42659,63.18826 43.45265,63.82545 H 42.59799 C 42.57193,63.44095 42.44257,63.12505 42.20971,62.878 41.97699,62.63069 41.68957,62.50717 41.3477,62.50717 40.88865,62.50717 40.533,62.69298 40.28061,63.06473 40.02825,63.43648 39.90207,63.97381 39.90207,64.67685 V 64.8691 C 39.90207,65.55387 40.02743,66.0812 40.27815,66.45112 40.5289,66.8209 40.88701,67.0058 41.3526,67.0058 Z M 44.22296,64.69879 C 44.22296,64.11666 44.32471,63.59286 44.52826,63.12781 44.73178,62.66275 45.01499,62.30388 45.37802,62.05118 45.74103,61.79848 46.15534,61.6722 46.62093,61.6722 47.34054,61.6722 47.92252,61.95236 48.36697,62.51269 48.81141,63.07288 49.03364,63.8181 49.03364,64.7482 V 64.81969 C 49.03364,65.39827 48.93513,65.91734 48.73802,66.37687 48.54117,66.83654 48.25946,67.19449 47.89328,67.45074 47.52689,67.70698 47.10615,67.83524 46.63074,67.83524 45.91454,67.83524 45.33407,67.55507 44.88963,66.99489 44.44518,66.43456 44.22296,65.69303 44.22296,64.77014 Z M 45.13138,64.81969 C 45.13138,65.47883 45.26737,66.00802 45.53913,66.4071 45.81091,66.80618 46.17497,67.0058 46.63074,67.0058 47.08993,67.0058 47.45444,66.80343 47.72469,66.39881 47.99493,65.99422 48.13014,65.42758 48.13014,64.69879 48.13014,64.04701 47.9925,63.51875 47.71744,63.11401 47.4423,62.70954 47.07683,62.50717 46.62093,62.50717 46.17497,62.50717 45.81511,62.70678 45.54159,63.10586 45.26819,63.50508 45.13148,64.07632 45.13148,64.81969 Z"
       fill="#1d1d1b"
       id="path23"
       style="stroke-width:0.264583" />
  </g>
</svg>
